<svg width="316" height="71" viewBox="0 0 316 71" fill="none" xmlns="http://www.w3.org/2000/svg">
<path d="M83.1241 50.5845C80.8457 50.5845 78.8269 50.1519 77.0676 49.2867C75.3372 48.3927 73.9672 47.1525 72.9578 45.5663C71.9772 43.9512 71.4437 42.0766 71.3572 39.9424H77.5867C77.7309 41.4998 78.2789 42.7255 79.2306 43.6196C80.2112 44.5136 81.509 44.9606 83.1241 44.9606C84.595 44.9606 85.763 44.6578 86.6282 44.0522C87.4934 43.4465 87.926 42.5813 87.926 41.4565C87.926 40.6778 87.6665 40.0578 87.1473 39.5963C86.657 39.106 86.037 38.7311 85.2871 38.4715C84.5373 38.212 83.4702 37.9091 82.0858 37.5631C80.0382 37.0728 78.351 36.5536 77.0243 36.0057C75.7265 35.4289 74.6017 34.5204 73.65 33.2802C72.6983 32.0401 72.2224 30.3385 72.2224 28.1755C72.2224 26.5316 72.6694 25.0607 73.5635 23.7629C74.4575 22.4651 75.6977 21.4557 77.2839 20.7346C78.8701 19.9848 80.6871 19.6099 82.7347 19.6099C84.8978 19.6099 86.8012 19.9992 88.4452 20.7779C90.0891 21.5566 91.3725 22.667 92.2954 24.109C93.2471 25.551 93.7518 27.2237 93.8095 29.1272H87.6665C87.5223 27.9159 87.0176 26.9642 86.1523 26.272C85.2871 25.551 84.1479 25.1905 82.7347 25.1905C81.4369 25.1905 80.4131 25.4645 79.6632 26.0124C78.9134 26.5604 78.5385 27.2814 78.5385 28.1755C78.5385 29.0119 78.798 29.6752 79.3171 30.1655C79.8363 30.6558 80.4996 31.0451 81.3071 31.3335C82.1147 31.5931 83.225 31.8815 84.6382 32.1987C86.7147 32.689 88.4019 33.1937 89.6997 33.7129C90.9975 34.232 92.1079 35.1116 93.0308 36.3518C93.9825 37.5631 94.4584 39.2358 94.4584 41.37C94.4584 43.2446 93.9825 44.8741 93.0308 46.2585C92.0791 47.6428 90.7524 48.7099 89.0508 49.4597C87.3492 50.2096 85.3736 50.5845 83.1241 50.5845Z" fill="white"/>
<path d="M98.9406 19.9559H119.533V25.5366H105.43V31.9392H116.677V37.5631H105.43V44.6145H120.009V50.2384H98.9406V19.9559Z" fill="white"/>
<path d="M124.373 19.9559H144.965V25.5366H130.862V31.9392H142.11V37.5631H130.862V44.6145H145.441V50.2384H124.373V19.9559Z" fill="white"/>
<path d="M149.806 19.9559H159.972C162.856 19.9559 165.481 20.5183 167.845 21.6431C170.21 22.7391 172.099 24.4262 173.513 26.7046C174.926 28.983 175.632 31.7805 175.632 35.0972C175.632 38.385 174.926 41.1681 173.513 43.4465C172.099 45.7249 170.21 47.4265 167.845 48.5513C165.481 49.6761 162.856 50.2384 159.972 50.2384H149.806V19.9559ZM159.323 44.6145C162.121 44.6145 164.442 43.8647 166.288 42.365C168.134 40.8364 169.057 38.4138 169.057 35.0972C169.057 31.7805 168.134 29.3579 166.288 27.8294C164.442 26.3009 162.121 25.5366 159.323 25.5366H156.295V44.6145H159.323Z" fill="white"/>
<path d="M189.695 19.9559H196.228V44.6145H209.941V50.2384H189.695V19.9559Z" fill="white"/>
<path d="M221.415 50.5845C218.214 50.5845 215.69 49.5751 213.844 47.5563C212.027 45.5086 211.119 42.7688 211.119 39.3367C211.119 37.0872 211.523 35.1116 212.33 33.41C213.167 31.7084 214.349 30.3962 215.878 29.4733C217.406 28.5504 219.223 28.089 221.329 28.089C222.626 28.089 223.794 28.3197 224.833 28.7811C225.9 29.2137 226.751 29.8194 227.385 30.5981V28.435H233.398V50.2384H227.385V47.9456C226.808 48.7532 225.986 49.4021 224.919 49.8924C223.852 50.3538 222.684 50.5845 221.415 50.5845ZM222.367 45.3932C223.982 45.3932 225.28 44.8453 226.26 43.7493C227.241 42.6246 227.731 41.1537 227.731 39.3367C227.731 37.491 227.241 36.0201 226.26 34.9242C225.28 33.7994 223.982 33.237 222.367 33.237C220.781 33.237 219.497 33.7994 218.517 34.9242C217.536 36.0201 217.046 37.491 217.046 39.3367C217.046 41.1537 217.536 42.6246 218.517 43.7493C219.497 44.8453 220.781 45.3932 222.367 45.3932Z" fill="white"/>
<path d="M248.779 50.2384C246.241 50.2384 244.222 49.5463 242.723 48.1619C241.223 46.7776 240.473 44.8309 240.473 42.3217V33.4533H236.32V28.435H239.002C239.983 28.435 240.473 27.9303 240.473 26.9209V21.9892H246.53V28.435H252.37V33.4533H246.53V42.0622C246.53 44.1387 247.539 45.1769 249.558 45.1769H252.37V50.2384H248.779Z" fill="white"/>
<path d="M264.887 50.5845C261.686 50.5845 259.162 49.5751 257.316 47.5563C255.499 45.5086 254.591 42.7688 254.591 39.3367C254.591 37.0872 254.995 35.1116 255.802 33.41C256.639 31.7084 257.821 30.3962 259.35 29.4733C260.878 28.5504 262.695 28.089 264.8 28.089C266.098 28.089 267.266 28.3197 268.305 28.7811C269.372 29.2137 270.222 29.8194 270.857 30.5981V28.435H276.87V50.2384H270.857V47.9456C270.28 48.7532 269.458 49.4021 268.391 49.8924C267.324 50.3538 266.156 50.5845 264.887 50.5845ZM265.839 45.3932C267.454 45.3932 268.752 44.8453 269.732 43.7493C270.713 42.6246 271.203 41.1537 271.203 39.3367C271.203 37.491 270.713 36.0201 269.732 34.9242C268.752 33.7994 267.454 33.237 265.839 33.237C264.253 33.237 262.969 33.7994 261.989 34.9242C261.008 36.0201 260.518 37.491 260.518 39.3367C260.518 41.1537 261.008 42.6246 261.989 43.7493C262.969 44.8453 264.253 45.3932 265.839 45.3932Z" fill="white"/>
<path d="M281.782 28.435H287.795V31.5066C288.401 30.4683 289.223 29.6463 290.261 29.0407C291.328 28.4062 292.568 28.089 293.981 28.089C297.356 28.089 299.577 29.4156 300.644 32.0689C301.22 30.9442 302.158 30.0069 303.456 29.257C304.782 28.4783 306.282 28.089 307.955 28.089C309.483 28.089 310.839 28.435 312.021 29.1272C313.204 29.8194 314.112 30.7711 314.747 31.9824C315.41 33.1937 315.742 34.5204 315.742 35.9624V50.2384H309.728V37.8659C309.728 36.4527 309.368 35.3279 308.647 34.4915C307.955 33.6263 307.032 33.1937 305.878 33.1937C304.638 33.1937 303.643 33.6263 302.893 34.4915C302.143 35.3279 301.768 36.4527 301.768 37.8659V50.2384H295.755V37.8659C295.755 36.4527 295.395 35.3279 294.674 34.4915C293.982 33.6263 293.059 33.1937 291.905 33.1937C290.665 33.1937 289.67 33.6263 288.92 34.4915C288.17 35.3279 287.795 36.4527 287.795 37.8659V50.2384H281.782V28.435Z" fill="white"/>
<path d="M28.6446 2.66146C30.4067 1.6441 32.5778 1.6441 34.3399 2.66146L58.2382 16.4591C60.0003 17.4765 61.0858 19.3567 61.0858 21.3914V48.9868C61.0858 51.0215 60.0003 52.9017 58.2382 53.919L34.3399 67.7167C32.5778 68.7341 30.4067 68.7341 28.6446 67.7167L4.74632 53.919C2.9842 52.9017 1.89868 51.0215 1.89868 48.9868V21.3914C1.89868 19.3567 2.9842 17.4765 4.74633 16.4591L28.6446 2.66146Z" fill="black"/>
<path fill-rule="evenodd" clip-rule="evenodd" d="M35.2889 1.01737L59.1872 14.8151C61.5367 16.1715 62.984 18.6784 62.984 21.3914V48.9868C62.984 51.6998 61.5367 54.2066 59.1872 55.5631L35.2889 69.3608C32.9394 70.7173 30.0447 70.7173 27.6952 69.3608L3.79686 55.5631C1.44735 54.2066 0 51.6998 0 48.9868V21.3914C0 18.6784 1.44735 16.1715 3.79686 14.8151L27.6952 1.01737C30.0447 -0.339121 32.9394 -0.339122 35.2889 1.01737ZM34.3397 2.66145C32.5775 1.64409 30.4065 1.64409 28.6444 2.66145L4.74607 16.4591C2.98395 17.4765 1.89843 19.3567 1.89843 21.3914V48.9868C1.89843 51.0215 2.98394 52.9017 4.74607 53.919L28.6444 67.7167C30.4065 68.7341 32.5775 68.7341 34.3397 67.7167L58.2379 53.919C60.0001 52.9017 61.0856 51.0215 61.0856 48.9868V21.3914C61.0856 19.3567 60.0001 17.4765 58.2379 16.4591L34.3397 2.66145Z" fill="#F651F6"/>
<path fill-rule="evenodd" clip-rule="evenodd" d="M33.0724 6.78959C33.2425 6.68924 33.4528 6.68657 33.6254 6.78256L40.998 10.8834C41.2671 11.0331 41.3641 11.373 41.2148 11.6426C41.0655 11.9122 40.7263 12.0095 40.4573 11.8598L33.9122 8.21926V23.8875L44.6205 17.6929C44.887 17.5388 45.2277 17.6303 45.3815 17.8974C45.5354 18.1645 45.444 18.5059 45.1775 18.6601L33.9151 25.1752L33.9692 31.1049L54.4334 19.2667C54.6999 19.1126 55.0406 19.2041 55.1944 19.4712C55.3483 19.7382 55.2569 20.0797 54.9904 20.2339L33.6994 32.5504C33.5278 32.6497 33.3165 32.6501 33.1445 32.5516C32.9724 32.4531 32.8655 32.2705 32.8637 32.0719L32.7979 24.8596L32.7979 24.8545V7.27076C32.7979 7.07297 32.9023 6.88993 33.0724 6.78959ZM29.8053 6.71244C30.113 6.71244 30.3625 6.96243 30.3625 7.2708V31.9039C30.3625 32.1024 30.2573 32.286 30.0861 32.3861C29.915 32.4862 29.7037 32.4877 29.5312 32.39L7.35672 19.8319C7.18407 19.7342 7.0763 19.5518 7.07372 19.3531C7.07115 19.1544 7.17416 18.9692 7.34422 18.867L14.575 14.52C14.8389 14.3614 15.1811 14.4471 15.3394 14.7116C15.4977 14.976 15.4121 15.319 15.1482 15.4776L8.73786 19.3314L22.9815 27.398V14.9988C22.9815 14.6904 23.2309 14.4405 23.5386 14.4405C23.8463 14.4405 24.0958 14.6904 24.0958 14.9988V28.029L29.2482 30.947V7.2708C29.2482 6.96243 29.4976 6.71244 29.8053 6.71244ZM6.42092 21.9092C6.72862 21.9092 6.97807 22.1592 6.97807 22.4676V46.7575L11.6353 43.9294V25.5791C11.6353 25.3821 11.7389 25.1996 11.9079 25.099C12.077 24.9984 12.2864 24.9945 12.459 25.0888L28.9886 34.1157C29.1655 34.2123 29.2766 34.3971 29.2792 34.599C29.2817 34.8008 29.1753 34.9884 29.0009 35.0894L21.7406 39.2951C21.4742 39.4494 21.1334 39.3581 20.9794 39.0911C20.8254 38.8241 20.9166 38.4826 21.183 38.3282L27.5839 34.6203L12.7496 26.5192V44.244C12.7496 44.4393 12.6478 44.6203 12.4812 44.7215L6.70964 48.2262C6.5376 48.3307 6.32273 48.3341 6.14746 48.2352C5.9722 48.1362 5.86377 47.9503 5.86377 47.7487V22.4676C5.86377 22.1592 6.11321 21.9092 6.42092 21.9092ZM56.8475 21.9868C57.0172 22.0872 57.1214 22.27 57.1214 22.4676V48.1752C57.1214 48.3751 57.0147 48.5598 56.8417 48.6594C56.6686 48.759 56.4557 48.7582 56.2834 48.6574L33.6831 35.4393C33.5099 35.338 33.4044 35.1512 33.4068 34.9502C33.4092 34.7493 33.5193 34.5651 33.6949 34.4681L56.2952 21.9786C56.4678 21.8832 56.6778 21.8863 56.8475 21.9868ZM35.0928 34.9708L56.0071 47.2028V23.4131L35.0928 34.9708ZM32.5995 37.3953C32.7761 37.296 32.9926 37.3006 33.1649 37.4072L54.4096 50.553C54.5769 50.6565 54.6774 50.8408 54.674 51.0378C54.6706 51.2348 54.5638 51.4154 54.3931 51.5131L33.276 63.5919C33.104 63.6902 32.8928 63.6897 32.7213 63.5905C32.5497 63.4913 32.4437 63.3082 32.4427 63.1097L32.3151 37.8851C32.314 37.6822 32.423 37.4946 32.5995 37.3953ZM33.4344 38.8864L33.4949 50.844L40.0659 47.4523C40.3395 47.3111 40.6754 47.4189 40.8163 47.6931C40.9572 47.9672 40.8497 48.3039 40.5761 48.4451L33.7179 51.985C33.6482 52.021 33.5745 52.0408 33.501 52.0458L33.5521 62.1481L53.0259 51.0093L33.4344 38.8864ZM29.859 37.8825C30.0147 38.1485 29.9257 38.4906 29.6603 38.6467L8.62424 51.0129L28.8212 62.1619V59.1687C28.8212 58.8603 29.0707 58.6104 29.3784 58.6104C29.6861 58.6104 29.9355 58.8603 29.9355 59.1687V63.1069C29.9355 63.3044 29.8315 63.4872 29.6618 63.5876C29.4922 63.6881 29.2822 63.6913 29.1096 63.596L7.22829 51.5172C7.05279 51.4203 6.94271 51.2365 6.94 51.0357C6.93729 50.8349 7.04238 50.6481 7.2152 50.5465L29.0965 37.6834C29.3619 37.5274 29.7033 37.6165 29.859 37.8825Z" fill="#F651F6"/>
</svg>
