<svg width="250" height="100" viewBox="0 0 250 100" fill="none" xmlns="http://www.w3.org/2000/svg">
<path d="M118.111 71.8752C114.874 71.8752 112.005 71.2605 109.505 70.0311C107.047 68.7609 105.1 66.9987 103.666 64.7448C102.273 62.45 101.515 59.7864 101.392 56.7539H110.243C110.448 58.9668 111.227 60.7084 112.579 61.9788C113.972 63.2491 115.816 63.8842 118.111 63.8842C120.201 63.8842 121.861 63.454 123.09 62.5935C124.319 61.7328 124.934 60.5035 124.934 58.9053C124.934 57.7988 124.565 56.9178 123.828 56.2621C123.131 55.5654 122.25 55.0327 121.185 54.6639C120.119 54.2952 118.603 53.8648 116.636 53.3731C113.726 52.6765 111.329 51.9387 109.444 51.1602C107.6 50.3407 106.002 49.0498 104.649 47.2876C103.297 45.5255 102.621 43.1077 102.621 40.0343C102.621 37.6985 103.256 35.6085 104.527 33.7645C105.797 31.9205 107.559 30.4862 109.813 29.4616C112.067 28.3962 114.648 27.8635 117.558 27.8635C120.631 27.8635 123.336 28.4167 125.672 29.5231C128.008 30.6296 129.831 32.2073 131.143 34.2563C132.495 36.3052 133.212 38.6819 133.294 41.3866H124.565C124.361 39.6655 123.643 38.3132 122.414 37.3297C121.185 36.3052 119.566 35.793 117.558 35.793C115.714 35.793 114.259 36.1823 113.194 36.9608C112.128 37.7395 111.595 38.7639 111.595 40.0343C111.595 41.2228 111.964 42.1653 112.702 42.8619C113.44 43.5586 114.382 44.1117 115.529 44.5215C116.677 44.8904 118.254 45.3002 120.263 45.7509C123.213 46.4476 125.61 47.1647 127.454 47.9024C129.298 48.64 130.876 49.8898 132.188 51.652C133.54 53.3731 134.216 55.7499 134.216 58.7823C134.216 61.446 133.54 63.7613 132.188 65.7284C130.835 67.6953 128.95 69.2116 126.532 70.277C124.115 71.3425 121.307 71.8752 118.111 71.8752Z" fill="white"/>
<path d="M140.584 28.3552H169.844V36.2848H149.805V45.3822H165.786V53.3732H149.805V63.3925H170.52V71.3835H140.584V28.3552Z" fill="white"/>
<path d="M176.721 28.3552H205.98V36.2848H185.941V45.3822H201.924V53.3732H185.941V63.3925H206.657V71.3835H176.721V28.3552Z" fill="white"/>
<path d="M212.859 28.3552H227.304C231.402 28.3552 235.131 29.1543 238.49 30.7526C241.851 32.3099 244.535 34.7071 246.544 37.9444C248.552 41.1818 249.555 45.1567 249.555 49.8694C249.555 54.541 248.552 58.4955 246.544 61.7329C244.535 64.9703 241.851 67.3881 238.49 68.9863C235.131 70.5845 231.402 71.3835 227.304 71.3835H212.859V28.3552ZM226.382 63.3925C230.357 63.3925 233.655 62.3271 236.278 60.1962C238.901 58.0242 240.213 54.582 240.213 49.8694C240.213 45.1567 238.901 41.7145 236.278 39.5426C233.655 37.3708 230.357 36.2848 226.382 36.2848H222.079V63.3925H226.382Z" fill="white"/>
<path d="M40.7004 3.78168C43.2042 2.33612 46.2891 2.33612 48.7928 3.78168L82.7498 23.3867C85.2536 24.8323 86.796 27.5039 86.796 30.395V69.6051C86.796 72.4962 85.2536 75.1678 82.7498 76.6133L48.7928 96.2184C46.2891 97.664 43.2042 97.664 40.7004 96.2184L6.74346 76.6133C4.23968 75.1678 2.69727 72.4962 2.69727 69.6051V30.395C2.69727 27.5039 4.23968 24.8323 6.74348 23.3867L40.7004 3.78168Z" fill="black"/>
<path fill-rule="evenodd" clip-rule="evenodd" d="M50.1418 1.44557L84.0988 21.0507C87.4372 22.978 89.4937 26.54 89.4937 30.3949V69.6051C89.4937 73.46 87.4372 77.0219 84.0988 78.9493L50.1418 98.5544C46.8034 100.482 42.6904 100.482 39.352 98.5544L5.39494 78.9493C2.05653 77.0219 0 73.46 0 69.6051V30.3949C0 26.54 2.05653 22.978 5.39494 21.0507L39.352 1.44557C42.6904 -0.481857 46.8034 -0.481859 50.1418 1.44557ZM48.7931 3.78164C46.2892 2.33608 43.2044 2.33608 40.7007 3.78164L6.74367 23.3867C4.23988 24.8323 2.69747 27.5038 2.69747 30.3949V69.6051C2.69747 72.4962 4.23987 75.1678 6.74367 76.6132L40.7007 96.2183C43.2044 97.6639 46.2892 97.6639 48.7931 96.2183L82.7499 76.6132C85.2538 75.1678 86.7962 72.4962 86.7962 69.6051V30.3949C86.7962 27.5038 85.2538 24.8323 82.7499 23.3867L48.7931 3.78164Z" fill="#F651F6"/>
<path fill-rule="evenodd" clip-rule="evenodd" d="M46.9926 9.64727C47.2343 9.50469 47.5331 9.50089 47.7784 9.63728L58.2541 15.4641C58.6364 15.6769 58.7743 16.1598 58.5621 16.5429C58.35 16.926 57.868 17.0642 57.4858 16.8515L48.1859 11.6787V33.9416L63.4013 25.1397C63.7799 24.9208 64.264 25.0508 64.4826 25.4303C64.7013 25.8098 64.5714 26.2949 64.1927 26.514L48.19 35.7713L48.2669 44.1968L77.3444 27.3759C77.723 27.157 78.2071 27.287 78.4257 27.6665C78.6444 28.0459 78.5145 28.5311 78.1358 28.7502L47.8835 46.2507C47.6397 46.3918 47.3395 46.3923 47.0951 46.2524C46.8505 46.1124 46.6987 45.853 46.6961 45.5708L46.6026 35.3229V35.3156V10.331C46.6026 10.0499 46.7509 9.78985 46.9926 9.64727ZM42.3504 9.53765C42.7876 9.53765 43.1422 9.89286 43.1422 10.331V45.3321C43.1422 45.6141 42.9927 45.875 42.7494 46.0172C42.5063 46.1595 42.2061 46.1616 41.961 46.0228L10.4534 28.179C10.208 28.0402 10.0549 27.781 10.0512 27.4987C10.0476 27.2164 10.194 26.9532 10.4356 26.808L20.7098 20.6314C21.0847 20.406 21.571 20.5278 21.7959 20.9036C22.0208 21.2793 21.8992 21.7667 21.5242 21.992L12.4158 27.4679L32.6545 38.9297V21.3117C32.6545 20.8735 33.0089 20.5184 33.4461 20.5184C33.8833 20.5184 34.2378 20.8735 34.2378 21.3117V39.8262L41.5589 43.9724V10.331C41.5589 9.89286 41.9132 9.53765 42.3504 9.53765ZM9.12368 31.1307C9.56089 31.1307 9.91533 31.4859 9.91533 31.9241V66.4375L16.5328 62.419V36.3452C16.5328 36.0653 16.68 35.806 16.9201 35.663C17.1604 35.5201 17.4579 35.5145 17.7032 35.6485L41.19 48.4748C41.4413 48.6121 41.5992 48.8746 41.6029 49.1615C41.6065 49.4483 41.4553 49.7148 41.2075 49.8583L30.8913 55.8342C30.5128 56.0534 30.0286 55.9237 29.8098 55.5443C29.5909 55.1649 29.7205 54.6797 30.099 54.4603L39.1941 49.1918L18.1161 37.681V62.8661C18.1161 63.1436 17.9714 63.4007 17.7347 63.5445L9.53392 68.5243C9.28947 68.6728 8.98417 68.6777 8.73512 68.5371C8.4861 68.3965 8.33203 68.1323 8.33203 67.8459V31.9241C8.33203 31.4859 8.68646 31.1307 9.12368 31.1307ZM80.7746 31.2409C81.0157 31.3836 81.1637 31.6433 81.1637 31.9241V68.4519C81.1637 68.7359 81.0121 68.9984 80.7663 69.1399C80.5204 69.2814 80.2179 69.2803 79.973 69.137L47.8604 50.3555C47.6143 50.2116 47.4644 49.9461 47.4678 49.6605C47.4712 49.3751 47.6276 49.1134 47.8771 48.9755L79.9898 31.2293C80.235 31.0937 80.5334 31.0981 80.7746 31.2409ZM49.8634 49.6898L79.5804 67.0702V33.2675L49.8634 49.6898ZM46.3207 53.1348C46.5716 52.9937 46.8793 53.0002 47.1241 53.1517L77.3106 71.8305C77.5483 71.9776 77.6911 72.2394 77.6862 72.5193C77.6814 72.7993 77.5297 73.0559 77.2871 73.1947L47.2819 90.3574C47.0375 90.4971 46.7374 90.4964 46.4938 90.3554C46.2499 90.2145 46.0993 89.9543 46.0979 89.6722L45.9166 53.8307C45.915 53.5424 46.0699 53.2759 46.3207 53.1348ZM47.507 55.2535L47.593 72.244L56.9297 67.4247C57.3184 67.2241 57.7957 67.3773 57.9959 67.7669C58.1961 68.1563 58.0434 68.6348 57.6546 68.8354L47.9098 73.8652C47.8108 73.9164 47.7061 73.9445 47.6016 73.9516L47.6742 88.3059L75.3445 72.4788L47.507 55.2535ZM42.4267 53.827C42.648 54.205 42.5215 54.6911 42.1444 54.9129L12.2544 72.484L40.9521 88.3255V84.0725C40.9521 83.6343 41.3066 83.2792 41.7439 83.2792C42.1811 83.2792 42.5354 83.6343 42.5354 84.0725V89.6683C42.5354 89.9489 42.3877 90.2086 42.1465 90.3513C41.9056 90.4941 41.6072 90.4986 41.3619 90.3632L10.2709 73.2005C10.0215 73.0628 9.86509 72.8017 9.86124 72.5164C9.85739 72.231 10.0067 71.9656 10.2523 71.8213L41.3433 53.5441C41.7204 53.3225 42.2055 53.4491 42.4267 53.827Z" fill="#F651F6"/>
</svg>
